<?xml version="1.0" encoding="UTF-8"?>
<svg width="100" height="100" viewBox="0 0 100 100" xmlns="http://www.w3.org/2000/svg">
  <defs>
    <pattern id="flame" x="0" y="0" width="100" height="100" patternUnits="userSpaceOnUse">
      <path d="M50,0 C60,20 70,30 80,40 C90,50 95,60 100,70 L100,100 L0,100 L0,70 C5,60 10,50 20,40 C30,30 40,20 50,0 Z" 
            fill="none" 
            stroke="#ff4500" 
            stroke-width="0.5" 
            stroke-opacity="0.1"/>
      <path d="M30,20 C40,30 50,40 60,50 C70,60 75,70 80,80 L80,100 L20,100 L20,80 C25,70 30,60 40,50 C50,40 60,30 70,20 Z" 
            fill="none" 
            stroke="#ff8c00" 
            stroke-width="0.5" 
            stroke-opacity="0.1"/>
    </pattern>
  </defs>
  <rect width="100" height="100" fill="url(#flame)"/>
</svg> 